<?xml version="1.0" standalone="no"?>
<!DOCTYPE svg PUBLIC "-//W3C//DTD SVG 20010904//EN"
 "http://www.w3.org/TR/2001/REC-SVG-20010904/DTD/svg10.dtd">
<svg version="1.0" xmlns="http://www.w3.org/2000/svg"
 width="512.000000pt" height="512.000000pt" viewBox="0 0 512.000000 512.000000"
 preserveAspectRatio="xMidYMid meet">
<metadata>
Created by potrace 1.16, written by Peter Selinger 2001-2019
</metadata>
<g transform="translate(0.000000,512.000000) scale(0.100000,-0.100000)"
fill="#000000" stroke="none">
<path d="M1302 4943 c-11 -10 -144 -161 -296 -335 -176 -201 -281 -330 -287
-350 -5 -19 -9 -299 -9 -654 l0 -622 -92 -94 c-147 -148 -171 -219 -123 -359
32 -94 30 -134 -11 -242 -39 -102 -77 -145 -169 -195 -134 -71 -155 -116 -155
-332 0 -215 22 -263 149 -329 94 -49 129 -88 172 -189 44 -108 47 -153 14
-250 -30 -90 -31 -141 -1 -204 25 -52 117 -160 179 -210 44 -35 56 -52 66 -90
25 -95 122 -213 222 -271 105 -61 -16 -57 1934 -55 l1780 3 60 29 c77 38 153
114 191 191 l29 60 3 602 3 601 -27 21 c-26 20 -37 21 -320 21 l-294 0 0 89
c0 89 0 89 28 95 55 14 229 108 292 159 145 118 257 298 301 482 18 77 20 110
16 235 -5 157 -21 228 -76 346 -99 212 -296 390 -509 459 l-52 17 0 498 c0
461 -1 503 -19 559 -46 147 -172 272 -320 315 -49 14 -198 16 -1357 16 -1226
0 -1303 -1 -1322 -17z m2577 -153 c110 -18 186 -70 237 -162 l29 -53 3 -486 3
-486 -123 -6 c-145 -7 -211 -23 -335 -82 -234 -113 -413 -335 -473 -585 -28
-117 -28 -303 0 -420 27 -111 104 -268 174 -352 165 -198 412 -318 658 -319
l98 0 0 -632 c1 -348 5 -663 10 -701 5 -40 20 -93 37 -127 l30 -59 -1069 0
-1069 0 15 28 c36 69 126 124 258 159 l67 17 84 -27 c109 -35 148 -35 228 5
80 40 225 181 263 256 33 65 35 148 6 222 -25 63 -25 112 -1 181 47 137 94
196 197 248 121 60 155 136 155 351 0 214 -34 291 -155 351 -103 52 -150 111
-197 248 -24 69 -24 118 1 181 12 31 20 74 20 111 0 86 -33 144 -144 254 -145
143 -226 170 -365 121 -92 -32 -101 -32 -200 -1 l-81 26 0 36 c0 24 -14 58
-45 110 -25 40 -45 76 -45 78 0 3 233 5 518 5 582 0 562 -2 633 77 64 71 64
67 64 603 0 536 0 532 -64 603 -72 80 -33 77 -779 77 -731 0 -702 2 -771 -63
-69 -66 -71 -73 -71 -447 l0 -336 -200 -337 c-141 -237 -200 -345 -200 -366 0
-25 -7 -34 -37 -50 -47 -23 -139 -51 -171 -51 -13 0 -62 12 -108 26 l-84 26 0
559 0 559 296 0 c180 0 303 4 314 10 33 18 40 76 40 358 l0 272 1143 0 c738 0
1165 -4 1206 -10z m-1397 -372 c-5 -80 10 -130 56 -180 50 -56 102 -78 182
-78 80 0 132 22 182 78 46 50 61 100 56 180 l-3 62 78 0 c98 0 140 -17 156
-60 7 -22 11 -135 11 -334 l0 -301 -92 92 c-104 103 -141 123 -228 123 -79 0
-123 -19 -188 -83 l-52 -52 -133 132 c-79 79 -147 138 -169 148 -48 19 -148
19 -196 0 -22 -9 -89 -68 -164 -143 l-128 -127 0 272 c0 149 3 279 6 288 15
39 57 44 349 45 l280 0 -3 -62z m-84 -551 l122 -122 -152 -152 -153 -153 -82
0 -82 0 -71 118 c-38 65 -70 122 -70 127 0 13 290 301 310 308 31 11 59 -8
178 -126z m1856 -457 c248 -63 453 -268 516 -516 90 -352 -111 -724 -459 -848
-82 -29 -93 -31 -236 -31 -140 1 -155 3 -225 29 -229 86 -402 275 -460 502
-40 155 -20 344 50 485 91 184 266 327 462 379 100 26 250 26 352 0z m-2264
-207 c25 -43 46 -82 48 -88 2 -8 -87 -137 -111 -162 -2 -2 -28 32 -56 76 -55
83 -65 91 -111 91 -46 0 -56 -8 -111 -91 -28 -44 -54 -78 -56 -76 -24 25 -113
154 -111 162 2 6 23 45 48 88 l45 77 185 0 185 0 45 -77z m696 -351 c66 -48
174 -170 174 -196 0 -12 -9 -49 -20 -81 -38 -111 -21 -234 52 -384 52 -106
120 -177 210 -220 81 -38 88 -54 88 -211 0 -157 -7 -173 -88 -211 -91 -44
-161 -117 -211 -222 -73 -150 -89 -272 -51 -382 11 -32 20 -69 20 -82 0 -26
-115 -153 -181 -199 l-41 -28 -64 23 c-95 34 -165 37 -264 12 -179 -45 -310
-138 -365 -258 -36 -77 -50 -83 -195 -83 -147 0 -159 5 -200 91 -42 89 -114
156 -224 209 -151 73 -272 87 -390 45 l-70 -24 -32 19 c-38 24 -171 162 -185
193 -8 18 -5 35 11 77 48 122 33 262 -45 418 -54 107 -114 171 -201 212 -45
21 -68 38 -74 56 -13 33 -13 235 0 268 6 18 29 35 73 56 86 41 149 107 202
212 78 156 93 296 45 418 -16 42 -19 59 -11 77 14 31 147 169 186 193 l33 20
54 -22 c73 -30 218 -31 301 -1 l57 20 0 -228 0 -227 -71 -69 c-170 -163 -249
-348 -249 -583 0 -237 82 -427 254 -588 l66 -61 0 -70 c0 -128 62 -235 171
-293 42 -22 55 -23 289 -26 231 -3 249 -2 303 18 122 46 197 161 197 301 l0
70 66 61 c172 161 254 351 254 588 0 235 -79 420 -249 583 l-71 69 0 228 0
229 53 -16 c77 -25 209 -22 272 5 66 28 75 27 121 -6z m-1408 -1298 l-3 -205
-44 67 c-66 100 -94 188 -99 313 -7 155 20 251 102 379 l41 63 3 -205 c1 -113
1 -299 0 -412z m1047 485 c19 -36 41 -93 49 -126 21 -78 21 -228 0 -306 -17
-66 -70 -177 -103 -217 l-20 -25 0 395 0 395 20 -25 c12 -14 36 -55 54 -91z
m-255 -599 l0 -80 -315 0 -315 0 0 80 0 80 315 0 315 0 0 -80z m0 -344 c0 -90
-3 -107 -23 -136 -44 -66 -72 -75 -263 -78 -181 -4 -233 4 -278 39 -44 35 -59
76 -64 182 l-5 97 317 0 316 0 0 -104z m-919 -582 c118 -35 202 -90 238 -154
l24 -43 -139 5 c-152 6 -200 19 -272 77 -47 37 -79 89 -60 96 111 41 130 42
209 19z"/>
<path d="M3220 1260 c-13 -13 -20 -33 -20 -60 0 -27 7 -47 20 -60 19 -19 33
-20 220 -20 187 0 201 1 220 20 13 13 20 33 20 60 0 27 -7 47 -20 60 -19 19
-33 20 -220 20 -187 0 -201 -1 -220 -20z"/>
<path d="M3220 940 c-13 -13 -20 -33 -20 -60 0 -27 7 -47 20 -60 19 -19 33
-20 380 -20 347 0 361 1 380 20 13 13 20 33 20 60 0 27 -7 47 -20 60 -19 19
-33 20 -380 20 -347 0 -361 -1 -380 -20z"/>
<path d="M3220 620 c-13 -13 -20 -33 -20 -60 0 -27 7 -47 20 -60 19 -19 33
-20 380 -20 347 0 361 1 380 20 13 13 20 33 20 60 0 27 -7 47 -20 60 -19 19
-33 20 -380 20 -347 0 -361 -1 -380 -20z"/>
<path d="M3780 3180 c-19 -19 -20 -33 -20 -460 0 -427 1 -441 20 -460 13 -13
33 -20 59 -20 34 0 71 24 327 206 159 113 295 213 302 222 6 9 12 32 12 52 0
20 -6 43 -12 52 -7 9 -143 109 -302 222 -256 182 -293 206 -327 206 -26 0 -46
-7 -59 -20z"/>
</g>
</svg>
