<?xml version="1.0" standalone="no"?>
<!DOCTYPE svg PUBLIC "-//W3C//DTD SVG 20010904//EN"
 "http://www.w3.org/TR/2001/REC-SVG-20010904/DTD/svg10.dtd">
<svg version="1.0" xmlns="http://www.w3.org/2000/svg"
 width="512.000000pt" height="512.000000pt" viewBox="0 0 512.000000 512.000000"
 preserveAspectRatio="xMidYMid meet">
<metadata>
Created by potrace 1.16, written by Peter Selinger 2001-2019
</metadata>
<g transform="translate(0.000000,512.000000) scale(0.100000,-0.100000)"
fill="#000000" stroke="none">
<path d="M1383 4870 c-94 -19 -177 -89 -228 -191 -39 -75 -74 -227 -82 -345
l-6 -101 -76 25 c-102 33 -267 41 -365 18 -106 -25 -195 -77 -275 -161 -116
-123 -192 -290 -227 -503 -23 -142 -15 -443 15 -584 57 -261 176 -487 319
-605 114 -93 267 -142 397 -128 66 8 191 45 243 73 33 18 35 18 80 -4 163 -77
332 -89 473 -34 144 57 263 178 355 363 71 140 97 231 142 490 l7 37 533 -590
c473 -524 536 -590 562 -590 16 0 40 10 53 23 36 32 1214 1341 1269 1409 60
74 142 241 169 343 30 115 30 318 0 430 -82 307 -311 531 -619 607 -119 30
-303 29 -417 -1 -150 -40 -296 -123 -399 -230 l-49 -50 -66 61 c-183 169 -368
242 -611 241 -231 -1 -418 -76 -584 -232 -99 -94 -205 -265 -222 -359 -6 -29
-10 -33 -28 -27 -106 31 -179 45 -232 45 -70 0 -186 -20 -253 -44 -24 -9 -47
-16 -52 -16 -25 0 4 225 42 327 27 71 70 133 109 156 16 10 52 21 80 24 73 9
102 55 63 102 -22 25 -63 33 -120 21z m1397 -151 c134 -37 221 -91 357 -221
69 -66 98 -88 118 -88 21 0 51 23 129 98 111 108 184 157 291 195 234 83 475
46 682 -106 209 -155 316 -440 264 -709 l-13 -68 -227 0 c-167 0 -231 -3 -243
-12 -8 -7 -43 -50 -77 -95 -33 -45 -65 -84 -69 -87 -4 -2 -56 165 -116 372
-59 207 -114 387 -122 400 -18 27 -73 30 -97 5 -10 -12 -48 -184 -109 -493
l-94 -475 -143 358 c-152 380 -162 397 -217 383 -22 -6 -39 -34 -110 -181
l-84 -175 -297 0 c-262 0 -299 -2 -315 -17 -24 -21 -23 -68 2 -93 19 -19 33
-20 348 -20 251 1 331 4 344 14 9 7 40 63 69 125 29 61 55 108 59 104 4 -4 74
-177 155 -383 84 -214 156 -383 167 -392 11 -10 30 -18 42 -18 55 0 55 1 151
485 l90 458 89 -314 c49 -173 93 -322 98 -331 12 -25 46 -41 74 -34 15 4 60
54 129 146 l106 140 170 0 c149 0 170 -2 165 -15 -18 -49 -117 -168 -373 -452
-777 -862 -916 -1014 -923 -1011 -7 3 -1039 1143 -1078 1190 -7 9 -18 63 -23
120 -24 258 -100 457 -226 598 l-46 51 27 81 c34 105 84 186 164 270 81 84
165 140 270 178 146 53 296 60 442 19z m-1194 -788 c57 -26 106 -70 140 -127
53 -91 84 -303 48 -338 -8 -9 -26 -16 -39 -16 -35 0 -55 36 -55 100 0 31 -7
83 -15 115 -39 151 -133 208 -282 171 -74 -18 -99 -11 -109 30 -11 43 15 60
131 88 40 10 134 -2 181 -23z"/>
<path d="M1945 2286 c-63 -28 -105 -94 -105 -166 l0 -38 -197 -4 c-225 -3
-248 -10 -291 -86 l-22 -40 0 -647 0 -647 22 -40 c43 -76 66 -83 291 -86 l197
-4 0 -39 c0 -73 48 -144 113 -168 16 -6 106 -11 211 -11 169 0 185 2 226 23
30 14 53 36 67 62 22 38 23 50 23 278 l0 237 700 0 700 0 0 -237 c0 -234 0
-237 25 -279 43 -74 79 -84 297 -84 174 0 187 1 228 23 54 28 90 90 90 153 l0
43 198 3 c196 3 199 3 239 30 22 14 48 43 59 65 18 36 19 69 19 678 0 609 -1
642 -19 678 -11 22 -37 51 -59 65 -40 27 -43 27 -239 30 l-198 4 0 42 c0 63
-36 125 -90 153 -41 22 -54 23 -228 23 -218 0 -254 -10 -297 -84 -25 -42 -25
-45 -25 -279 l0 -237 -700 0 -700 0 0 238 c0 227 -1 239 -23 276 -14 25 -39
48 -66 63 -42 22 -54 23 -230 23 -133 -1 -195 -5 -216 -14z m393 -128 c17 -17
17 -1689 0 -1706 -8 -8 -61 -12 -174 -12 -134 0 -165 3 -178 16 -14 14 -16
105 -16 849 0 744 2 835 16 849 13 13 44 16 178 16 113 0 166 -4 174 -12z
m2036 -4 c14 -14 16 -105 16 -849 0 -744 -2 -835 -16 -849 -13 -13 -43 -16
-170 -16 -88 0 -164 4 -175 10 -19 10 -19 31 -19 855 0 793 1 845 18 854 9 6
86 11 174 11 129 0 159 -3 172 -16z m-2534 -849 l0 -645 -171 0 c-98 0 -178 4
-190 10 -18 10 -19 28 -19 635 0 584 1 625 18 634 9 6 91 11 190 11 l172 0 0
-645z m3046 631 c18 -14 19 -32 19 -631 0 -599 -1 -617 -19 -631 -15 -11 -59
-14 -193 -14 l-173 0 0 645 0 645 173 0 c134 0 178 -3 193 -14z"/>
</g>
</svg>
