<?xml version="1.0" standalone="no"?>
<!DOCTYPE svg PUBLIC "-//W3C//DTD SVG 20010904//EN"
 "http://www.w3.org/TR/2001/REC-SVG-20010904/DTD/svg10.dtd">
<svg version="1.0" xmlns="http://www.w3.org/2000/svg"
 width="512.000000pt" height="512.000000pt" viewBox="0 0 512.000000 512.000000"
 preserveAspectRatio="xMidYMid meet">
<metadata>
Created by potrace 1.16, written by Peter Selinger 2001-2019
</metadata>
<g transform="translate(0.000000,512.000000) scale(0.100000,-0.100000)"
fill="#000000" stroke="none">
<path d="M2840 4863 c-494 -53 -898 -410 -1023 -902 -18 -73 -22 -114 -21
-271 0 -168 3 -194 26 -281 15 -53 37 -124 51 -158 l25 -61 -333 0 c-309 0
-334 1 -339 18 -3 9 -44 161 -91 337 -60 227 -91 325 -105 340 -20 19 -32 20
-366 20 l-346 0 -24 -28 c-30 -36 -30 -68 0 -104 l24 -28 298 -5 298 -5 88
-330 c331 -1245 508 -1913 508 -1917 0 -3 -28 -15 -62 -28 -215 -78 -278 -360
-117 -521 67 -67 109 -83 235 -87 l112 -4 -24 -47 c-87 -169 -28 -386 134
-490 189 -121 443 -48 544 157 30 61 33 74 33 162 0 83 -4 103 -27 154 -16 32
-28 60 -28 62 0 2 234 4 521 4 286 0 519 -3 517 -7 -51 -100 -53 -107 -53
-213 0 -94 3 -111 27 -161 38 -76 109 -146 188 -183 58 -27 75 -31 155 -31 80
0 97 4 157 32 82 39 151 105 186 181 24 50 27 69 27 162 0 93 -3 111 -27 163
l-27 57 124 0 c122 0 124 0 144 26 35 45 26 95 -20 119 -24 13 -211 15 -1365
15 l-1336 0 -38 21 c-105 59 -105 202 0 263 35 21 43 21 1451 24 1330 2 1417
3 1432 20 16 18 477 1733 477 1775 0 14 -9 36 -21 51 l-20 26 -386 0 c-363 0
-385 1 -378 18 67 164 99 318 99 482 0 202 -39 365 -131 543 -118 229 -298
403 -533 516 -202 97 -425 137 -640 114z m300 -174 c299 -47 588 -263 728
-544 79 -160 107 -282 105 -465 -1 -157 -26 -271 -88 -408 l-38 -82 -334 0
c-315 0 -333 1 -324 18 5 9 68 115 140 236 80 133 131 229 131 245 0 28 -418
735 -448 759 -17 13 -69 16 -96 6 -9 -3 -108 -160 -220 -348 -223 -374 -236
-397 -236 -421 0 -9 63 -122 140 -250 77 -128 140 -236 140 -239 0 -3 -148 -6
-329 -6 l-328 0 -38 82 c-64 140 -88 251 -89 413 -1 186 25 298 106 460 128
256 372 454 648 526 145 37 271 43 430 18z m-23 -706 c79 -130 141 -239 139
-241 -3 -2 -68 -23 -145 -47 l-141 -43 -132 40 c-73 22 -139 43 -145 47 -9 4
32 80 130 244 78 130 144 237 147 237 3 0 69 -107 147 -237z m-205 -487 l57
-17 100 31 c56 18 105 30 111 28 5 -2 -37 -81 -93 -175 -78 -132 -107 -173
-122 -172 -15 0 -45 42 -126 178 l-107 179 62 -18 c33 -10 87 -25 118 -34z
m-802 -916 c10 -5 74 -101 142 -212 l123 -203 5 187 c5 175 6 189 27 209 28
28 72 28 95 -1 17 -20 18 -49 18 -355 0 -304 -1 -333 -17 -347 -63 -54 -85
-35 -226 196 l-122 201 -6 -195 c-3 -107 -6 -196 -7 -197 -1 -1 -15 -9 -31
-18 -35 -18 -74 -7 -90 24 -13 23 -15 669 -3 687 9 14 44 33 60 34 7 0 22 -4
32 -10z m1161 -8 c31 -26 31 -78 0 -104 -21 -16 -43 -18 -187 -18 l-164 0 0
-95 0 -95 145 0 c162 0 208 -11 225 -55 12 -31 -1 -70 -29 -84 -11 -7 -86 -11
-180 -11 l-161 0 0 -111 c0 -119 -7 -145 -46 -159 -29 -11 -77 9 -88 35 -3 9
-6 163 -6 341 l0 325 25 24 c24 25 25 25 233 25 189 0 212 -2 233 -18z m794
12 c26 -11 46 -59 35 -88 -13 -36 -40 -46 -124 -46 l-76 0 0 -282 c0 -275 0
-282 -22 -305 -27 -29 -65 -29 -95 -1 -23 21 -23 22 -23 305 l0 283 -76 0
c-84 0 -111 10 -124 46 -11 27 8 78 32 87 19 8 453 8 473 1z m-1953 -1780 c59
-41 91 -102 91 -173 0 -210 -263 -293 -387 -123 -28 40 -31 50 -31 122 0 71 3
82 30 121 45 64 104 91 187 87 55 -3 75 -9 110 -34z m1646 17 c163 -84 162
-299 -3 -383 -115 -59 -262 12 -297 145 -23 87 22 185 108 234 51 29 139 31
192 4z"/>
</g>
</svg>
