<?xml version="1.0" standalone="no"?>
<!DOCTYPE svg PUBLIC "-//W3C//DTD SVG 20010904//EN"
 "http://www.w3.org/TR/2001/REC-SVG-20010904/DTD/svg10.dtd">
<svg version="1.0" xmlns="http://www.w3.org/2000/svg"
 width="512.000000pt" height="512.000000pt" viewBox="0 0 512.000000 512.000000"
 preserveAspectRatio="xMidYMid meet">
<metadata>
Created by potrace 1.16, written by Peter Selinger 2001-2019
</metadata>
<g transform="translate(0.000000,512.000000) scale(0.100000,-0.100000)"
fill="#000000" stroke="none">
<path d="M392 4780 c-67 -41 -72 -60 -72 -300 0 -197 2 -218 20 -248 30 -48
75 -72 140 -72 65 0 110 24 140 72 17 28 20 51 20 141 l0 107 108 0 c121 0
156 13 192 72 27 45 27 131 0 176 -41 67 -60 72 -300 72 -197 0 -218 -2 -248
-20z"/>
<path d="M1968 4563 c-291 -130 -528 -239 -528 -243 0 -8 1100 -480 1120 -480
20 0 1120 472 1120 480 0 4 -240 114 -532 244 -511 227 -535 237 -593 236 -56
-1 -97 -18 -587 -237z"/>
<path d="M4232 4780 c-48 -30 -72 -75 -72 -140 0 -65 24 -110 72 -140 28 -17
51 -20 141 -20 l107 0 0 -107 c0 -122 13 -157 72 -193 45 -27 131 -27 176 0
67 41 72 60 72 300 0 197 -2 218 -20 248 -41 67 -60 72 -300 72 -197 0 -218
-2 -248 -20z"/>
<path d="M1440 3622 l0 -537 25 -37 c16 -24 45 -46 82 -64 204 -96 919 -424
925 -424 5 0 7 261 6 581 l-3 580 -509 220 c-281 120 -513 219 -518 219 -4 0
-8 -242 -8 -538z"/>
<path d="M3255 3985 c-220 -96 -448 -195 -507 -220 l-108 -47 0 -579 c0 -318
3 -579 8 -579 6 0 722 328 925 424 37 18 66 40 82 64 l25 37 0 537 c0 424 -3
538 -12 537 -7 0 -193 -79 -413 -174z"/>
<path d="M392 3980 c-67 -41 -72 -60 -72 -300 0 -197 2 -218 20 -248 30 -48
75 -72 140 -72 65 0 110 24 140 72 18 30 20 51 20 248 0 197 -2 218 -20 248
-30 48 -75 72 -140 72 -37 0 -66 -6 -88 -20z"/>
<path d="M4552 3980 c-67 -41 -72 -60 -72 -300 0 -197 2 -218 20 -248 30 -48
75 -72 140 -72 65 0 110 24 140 72 18 30 20 51 20 248 0 197 -2 218 -20 248
-30 48 -75 72 -140 72 -37 0 -66 -6 -88 -20z"/>
<path d="M392 3180 c-67 -41 -72 -60 -72 -300 0 -197 2 -218 20 -248 41 -67
60 -72 300 -72 240 0 259 5 300 72 27 45 27 131 0 176 -36 59 -71 72 -192 72
l-108 0 0 108 c0 89 -3 112 -20 140 -30 48 -75 72 -140 72 -37 0 -66 -6 -88
-20z"/>
<path d="M4552 3180 c-59 -36 -72 -71 -72 -192 l0 -108 -107 0 c-122 0 -157
-13 -193 -72 -27 -45 -27 -131 0 -176 41 -67 60 -72 300 -72 240 0 259 5 300
72 18 30 20 51 20 248 0 197 -2 218 -20 248 -30 48 -75 72 -140 72 -37 0 -66
-6 -88 -20z"/>
<path d="M920 2379 c-286 -74 -507 -297 -580 -583 -18 -72 -20 -111 -20 -436
0 -325 2 -364 20 -436 73 -288 296 -511 584 -584 73 -18 111 -20 492 -20 384
0 417 1 465 19 83 32 152 92 229 201 94 133 178 196 313 235 74 21 200 21 274
0 137 -39 225 -108 326 -252 63 -91 137 -153 216 -184 48 -18 81 -19 465 -19
473 0 497 3 661 85 153 75 275 197 350 350 80 160 85 195 85 605 0 325 -2 364
-20 436 -73 288 -296 511 -584 584 -78 20 -109 20 -1640 19 -1515 0 -1563 -1
-1636 -20z m3046 -308 c100 -12 182 -40 251 -86 150 -99 240 -250 251 -416 4
-68 2 -79 -17 -98 -26 -26 -75 -27 -100 -2 -19 19 -23 34 -36 131 -14 109
-108 231 -220 286 -60 29 -61 29 -285 34 -240 5 -265 10 -276 55 -10 42 4 75
39 90 38 17 268 20 393 6z m484 -821 c11 -11 20 -33 20 -50 0 -17 -9 -39 -20
-50 -43 -43 -120 -11 -120 50 0 38 32 70 70 70 17 0 39 -9 50 -20z"/>
</g>
</svg>
